<?xml version="1.0" encoding="UTF-8"?>
<svg version="1.1" xmlns="http://www.w3.org/2000/svg" width="241" height="241">
<path d="M0 0 C1.0068132 0.00081573 1.0068132 0.00081573 2.03396606 0.00164795 C13.34594747 0.04354231 23.92823478 0.99978056 34.75 4.375 C35.78568115 4.69645996 35.78568115 4.69645996 36.84228516 5.02441406 C47.07918589 8.32075847 56.41805268 13.08225376 65.75 18.375 C66.34796387 18.69049805 66.94592773 19.00599609 67.56201172 19.33105469 C71.65669996 21.53478164 74.57638652 24.00335304 77.75 27.375 C78.73226498 28.29058641 79.72355198 29.19656906 80.72265625 30.09375 C81.22990234 30.55136719 81.73714844 31.00898438 82.25976562 31.48046875 C83.29708589 32.41209978 84.33615927 33.34178242 85.37695312 34.26953125 C88.50929469 37.10260451 91.12525684 40.07854837 93.75 43.375 C94.74 44.035 95.73 44.695 96.75 45.375 C97.46301152 46.6841359 98.12114147 48.02342345 98.75 49.375 C99.98794753 51.38248248 101.23947732 53.3816153 102.5 55.375 C111.81875822 70.43406262 118.79313276 86.63612558 120.75 104.375 C120.85957031 105.29539062 120.96914062 106.21578125 121.08203125 107.1640625 C122.07215404 116.53722487 121.83439277 125.7954452 121.3125 135.1875 C121.25376709 136.26378662 121.25376709 136.26378662 121.19384766 137.36181641 C120.77565352 144.23718441 119.93400587 149.25252105 116.75 155.375 C116.01500544 157.47000274 115.3080834 159.57500135 114.625 161.6875 C111.01178835 172.01252602 105.70783788 181.51913953 100.09375 190.8828125 C99.69349609 191.55199707 99.29324219 192.22118164 98.88085938 192.91064453 C98.50767578 193.39388184 98.13449219 193.87711914 97.75 194.375 C97.09 194.375 96.43 194.375 95.75 194.375 C95.52441406 194.91511719 95.29882812 195.45523438 95.06640625 196.01171875 C93.33996376 199.11111848 91.08101168 201.59799965 88.6875 204.1875 C88.2023291 204.71649902 87.7171582 205.24549805 87.21728516 205.79052734 C83.59143196 209.66276325 79.75164124 212.97880823 75.4296875 216.0703125 C73.61420568 217.28655808 73.61420568 217.28655808 72.75 219.375 C71.19140625 220.4453125 71.19140625 220.4453125 69.3125 221.5 C68.38630859 222.02980469 68.38630859 222.02980469 67.44140625 222.5703125 C65.75 223.375 65.75 223.375 63.75 223.375 C63.75 224.035 63.75 224.695 63.75 225.375 C32.40901177 239.76283941 -0.10880479 247.97306369 -34.25 237.375 C-35.27770508 237.06151611 -35.27770508 237.06151611 -36.32617188 236.74169922 C-57.63837227 230.01232658 -74.89410298 217.33265205 -90.25 201.375 C-91.06984375 200.60929688 -91.8896875 199.84359375 -92.734375 199.0546875 C-108.07600633 182.712515 -119.25 156.83250226 -119.25 134.375 C-108.36 134.375 -97.47 134.375 -86.25 134.375 C-84.93 139.655 -83.61 144.935 -82.25 150.375 C-80.02124434 156.43297554 -80.02124434 156.43297554 -76.25 161.375 C-75.57011975 163.03632028 -74.90467783 164.70358767 -74.25 166.375 C-63.81620767 185.05712817 -45.47339218 198.6952131 -25.0625 204.65625 C-18.23874936 206.50474513 -11.33057948 208.06480318 -4.25 208.375 C-3.50105469 208.41496094 -2.75210938 208.45492187 -1.98046875 208.49609375 C13.36013123 208.91740263 29.45626989 205.19641149 42.75 197.375 C43.59820312 196.88386719 44.44640625 196.39273438 45.3203125 195.88671875 C63.19258098 185.05881236 74.33643416 170.30552313 82.75 151.375 C72.85 151.045 62.95 150.715 52.75 150.375 C52.42 151.695 52.09 153.015 51.75 154.375 C47.23166184 160.96088129 42.10393526 166.35696409 35.5 170.83984375 C33.46860702 172.62184697 33.11430156 173.73950589 32.75 176.375 C31.450625 176.478125 30.15125 176.58125 28.8125 176.6875 C24.58510348 177.1468549 20.8687887 178.18285604 16.890625 179.65625 C2.99038621 184.32348346 -13.09791986 181.79303487 -26.203125 176.08984375 C-38.7274835 169.81017238 -49.37848541 159.13125514 -55.25 146.375 C-55.25 145.715 -55.25 145.055 -55.25 144.375 C-55.91 144.045 -56.57 143.715 -57.25 143.375 C-57.745 138.92 -57.745 138.92 -58.25 134.375 C-10.07 134.045 38.11 133.715 87.75 133.375 C87.75 124.135 87.75 114.895 87.75 105.375 C87.09 105.375 86.43 105.375 85.75 105.375 C85.62625 104.4778125 85.5025 103.580625 85.375 102.65625 C83.82980765 93.30783629 80.89796545 85.86216191 76.39453125 77.54296875 C74.75 74.375 74.75 74.375 74.75 72.375 C74.09 72.375 73.43 72.375 72.75 72.375 C71.59375 70.7578125 71.59375 70.7578125 70.25 68.5 C59.00008073 51.13361978 39.57783294 40.06115054 19.75 35.375 C0.56500073 31.66928822 -18.40920157 33.07800861 -36.25 41.375 C-37.31605469 41.86742187 -38.38210937 42.35984375 -39.48046875 42.8671875 C-60.7456896 53.48709469 -75.54245671 72.02056383 -83.25 94.375 C-84.24 98.335 -85.23 102.295 -86.25 106.375 C-97.14 106.375 -108.03 106.375 -119.25 106.375 C-117.34225836 85.38984191 -110.55595875 67.66658476 -98.44921875 50.51171875 C-96.26929361 47.50265526 -96.26929361 47.50265526 -94.6953125 44.66796875 C-93.17086474 42.24945298 -91.65151188 40.79042381 -89.4375 39 C-86.7831124 36.84893939 -84.60252035 34.62746688 -82.453125 31.98828125 C-79.31467924 28.26652341 -75.85217312 25.61934576 -71.8125 22.9375 C-71.11729248 22.46940918 -70.42208496 22.00131836 -69.70581055 21.51904297 C-42.70545618 3.64500989 -42.70545618 3.64500989 -30.25 4.375 C-30.25 3.715 -30.25 3.055 -30.25 2.375 C-20.1207065 0.80930166 -10.26787831 -0.01423847 0 0 Z M118.75 143.375 C119.75 146.375 119.75 146.375 119.75 146.375 Z " fill="#FEFEFE" transform="translate(119.25,-0.375)"/>
<path d="M0 0 C1.65612305 0.01353516 1.65612305 0.01353516 3.34570312 0.02734375 C6.0432017 0.05069872 8.74023077 0.08344946 11.4375 0.125 C11.4375 0.785 11.4375 1.445 11.4375 2.125 C12.44039063 2.21652344 13.44328125 2.30804688 14.4765625 2.40234375 C18.65815556 3.00677211 22.13954453 4.66247023 25.8125 6.6875 C26.79694092 7.2275769 26.79694092 7.2275769 27.80126953 7.77856445 C40.63715528 15.03851611 49.65195331 26.2279814 54.87890625 40.00390625 C55.4375 42.125 55.4375 42.125 55.4375 46.125 C16.8275 46.125 -21.7825 46.125 -61.5625 46.125 C-58.71988905 33.33325071 -53.73346483 25.34492016 -44.5625 16.125 C-44.04429688 15.57199219 -43.52609375 15.01898438 -42.9921875 14.44921875 C-39.10984532 10.67867176 -34.46312358 8.32305033 -29.6875 5.875 C-29.02741943 5.5332373 -28.36733887 5.19147461 -27.68725586 4.83935547 C-18.56969303 0.35376935 -10.06214541 -0.15769486 0 0 Z " fill="#FEFEFE" transform="translate(122.5625,59.875)"/>
<path d="" fill="#000000" transform="translate(0,0)"/>
<path d="" fill="#000000" transform="translate(0,0)"/>
<path d="" fill="#000000" transform="translate(0,0)"/>
<path d="" fill="#000000" transform="translate(0,0)"/>
<path d="" fill="#000000" transform="translate(0,0)"/>
<path d="" fill="#000000" transform="translate(0,0)"/>
<path d="" fill="#000000" transform="translate(0,0)"/>
<path d="" fill="#000000" transform="translate(0,0)"/>
<path d="" fill="#000000" transform="translate(0,0)"/>
<path d="" fill="#000000" transform="translate(0,0)"/>
<path d="" fill="#000000" transform="translate(0,0)"/>
<path d="" fill="#000000" transform="translate(0,0)"/>
<path d="" fill="#000000" transform="translate(0,0)"/>
<path d="" fill="#000000" transform="translate(0,0)"/>
</svg>
